<?xml version="1.0" encoding="UTF-8"?>
<svg id="Layer_1" data-name="Layer 1" xmlns="http://www.w3.org/2000/svg" viewBox="0 0 48 48">
  <defs>
    <style>
      .cls-1 {
        fill: #ed1c24;
      }

      .cls-1, .cls-2 {
        stroke-width: 0px;
      }

      .cls-2 {
        fill: #fff;
      }
    </style>
  </defs>
  <polygon class="cls-2" points="30.6 21.21 29.02 27.53 17.85 16.35 12.44 37.97 5.46 37.97 12.44 10.03 19.43 10.03 30.6 21.21"/>
  <polygon class="cls-2" points="42.54 10.03 35.56 37.97 28.57 37.97 17.4 26.79 18.98 20.47 30.15 31.65 35.56 10.03 42.54 10.03"/>
  <g id="Red_Bands" data-name="Red Bands">
    <polygon class="cls-1" points="17.71 37.97 15.23 35.48 16.81 29.16 25.61 37.97 17.71 37.97"/>
    <polygon class="cls-1" points="30.29 10.03 32.77 12.52 31.19 18.84 22.39 10.03 30.29 10.03"/>
  </g>
  <path class="cls-2" d="M9.12,5.77L0,42.23h38.88L48,5.77H9.12ZM37.22,40.1h-9.53s-10.86,0-10.86,0l-2.17-2.17-.54,2.17H2.73L10.78,7.9h20.39l2.18,2.18.54-2.18h11.38l-8.05,32.2h0Z"/>
</svg>