<?xml version="1.0" encoding="UTF-8"?>
<svg id="Layer_1" data-name="Layer 1" xmlns="http://www.w3.org/2000/svg" viewBox="0 0 48 48">
  <defs>
    <style>
      .cls-1 {
        fill: #fff;
        stroke-width: 0px;
      }
    </style>
  </defs>
  <g id="Outline">
    <g id="Facebook">
      <path class="cls-1" d="M9.04,5.92L0,42.08h38.96L48,5.92H9.04ZM37.46,40.27H2.4L10.54,7.73h35.06l-8.14,32.54Z"/>
      <path class="cls-1" d="M13.14,38.46H4.8l4.73-18.9v15.28c0,1.99,1.62,3.62,3.62,3.62Z"/>
      <path class="cls-1" d="M29.43,38.46h-5.44v-9.95h-3.62v-4.52h3.62v-3.62c0-1.44.57-2.81,1.59-3.84,1.01-1.01,2.39-1.59,3.84-1.59h3.62v4.52h-1.8c-1,0-1.8-.09-1.8.9v3.62h4.52l-1.8,4.52h-2.71v9.95h0Z"/>
      <path class="cls-1" d="M38.47,28.44v-15.28c0-1.99-1.62-3.62-3.62-3.62h8.34l-4.73,18.9Z"/>
    </g>
  </g>
</svg>