<?xml version="1.0" encoding="UTF-8"?>
<svg id="Layer_1" data-name="Layer 1" xmlns="http://www.w3.org/2000/svg" viewBox="0 0 181.4 48">
  <defs>
    <style>
      .cls-1 {
        fill: #ed1c24;
      }

      .cls-1, .cls-2 {
        stroke-width: 0px;
      }

      .cls-2 {
        fill: #fff;
      }
    </style>
  </defs>
  <g id="Logo">
    <g>
      <polygon class="cls-2" points="32.52 20.39 30.48 28.56 16.03 14.12 9.05 42.05 .02 42.05 9.05 5.95 18.07 5.95 32.52 20.39"/>
      <polygon class="cls-2" points="47.95 5.95 38.92 42.05 29.9 42.05 15.45 27.61 17.49 19.44 31.94 33.88 38.92 5.95 47.95 5.95"/>
      <polygon class="cls-1" points="15.85 42.05 12.64 38.84 14.69 30.67 26.07 42.05 15.85 42.05"/>
      <polygon class="cls-1" points="32.11 5.95 35.32 9.16 33.28 17.33 21.9 5.95 32.11 5.95"/>
    </g>
    <g>
      <polygon class="cls-2" points="177.45 21.63 172.35 42.04 163.18 42.04 164.89 35.19 157.55 27.85 154 42.05 144.83 42.05 149.93 21.64 159.11 21.64 166.44 28.98 168.28 21.63 177.45 21.63"/>
      <path class="cls-2" d="M119.53,21.64l-5.1,20.41h27.58l5.1-20.41h-27.58ZM133.96,37.55h-9.23l2.85-11.4h9.23l-2.85,11.4h0Z"/>
      <polygon class="cls-2" points="102.43 42.04 111.61 42.04 116.71 21.63 107.54 21.63 102.43 42.04"/>
      <polygon class="cls-2" points="104.71 21.63 103.59 26.14 94.41 26.14 91.59 37.41 91.59 37.41 90.43 42.05 81.26 42.05 85.23 26.14 76.06 26.14 77.19 21.63 104.71 21.63"/>
      <path class="cls-2" d="M46.85,21.63l-3.95,15.78h0l-1.16,4.64h9.18l2-8.02h9.17l-2.01,8.02h9.18l1.16-4.64h0l3.94-15.78h-27.52ZM63.23,29.52h-9.18l.85-3.38h9.17l-.85,3.38Z"/>
    </g>
    <g>
      <polygon class="cls-1" points="56.35 9.08 55.85 11.11 68.59 11.11 67.94 13.7 67.94 13.72 67.31 16.28 66.52 19.41 47.41 19.41 48.19 16.28 60.93 16.28 61.44 14.24 48.69 14.24 49.47 11.11 49.98 9.08 50.76 5.95 69.88 5.95 69.1 9.08 56.35 9.08"/>
      <polygon class="cls-1" points="90.59 5.95 89.81 9.08 83.44 9.08 80.86 19.41 74.48 19.41 77.07 9.08 70.69 9.08 71.47 5.95 90.59 5.95"/>
      <path class="cls-1" d="M92.18,5.95h0s-3.37,13.46-3.37,13.46h6.37l1.29-5.16.06-.26.24.26,4.77,5.16h7.36l-4.74-5.16h5.04s.01,0,.01,0l1.29-5.16.78-3.13h-19.12ZM103.64,11.11h-6.38l.51-2.03h6.38l-.51,2.03h0Z"/>
      <path class="cls-1" d="M115.9,19.41h-6.37l3.37-13.46h6.37l-3.37,13.46Z"/>
      <path class="cls-1" d="M120.85,5.95h0s-1.29,5.16-1.29,5.16h0l-.06.22-2.02,8.07h6.37l1.29-5.16h12.75s0,0,0,0l1.29-5.16.78-3.13h-19.12ZM126.44,9.08h6.38l-.51,2.03h-6.38l.51-2.03h0Z"/>
      <polygon class="cls-1" points="147.15 9.08 146.64 11.11 159.39 11.11 158.61 14.24 145.86 14.24 145.35 16.28 158.09 16.28 157.31 19.41 138.19 19.41 138.97 16.28 141.56 5.95 160.68 5.95 159.9 9.08 147.15 9.08"/>
      <polygon class="cls-1" points="167.85 9.08 167.34 11.12 180.08 11.12 179.44 13.7 179.43 13.72 178.8 16.28 178.02 19.41 158.9 19.41 159.68 16.28 172.43 16.28 172.94 14.24 160.18 14.24 160.97 11.12 161.48 9.08 162.26 5.95 181.38 5.95 180.59 9.08 167.85 9.08"/>
    </g>
  </g>
</svg>